
        <svg xmlns="http://www.w3.org/2000/svg" xmlns:xlink="http://www.w3.org/1999/xlink" version="1.1" width="3153.846153846154" height="992.3076923076923" viewBox="0 0 3153.846153846154 992.3076923076923">
			
			<g transform="scale(7.6923076923076925) translate(10, 10)">
				<defs id="SvgjsDefs1357"/><g id="SvgjsG1358" featureKey="rootContainer" transform="matrix(1,0,0,1,0,0)" fill="#fff"><rect xmlns="http://www.w3.org/2000/svg" width="390" height="109" rx="10" ry="10"/></g><g id="SvgjsG1359" featureKey="symbolFeature-0" transform="matrix(0.6036499039198816,0,0,0.6036499039198816,164.98973250680075,7.931861857829109)" fill="#000000"><g xmlns="http://www.w3.org/2000/svg"><path d="M42.678,56.625c-0.537-0.896-2.406-3.49-7.8-1.887v-1.193c1.669-1.83,3.359-4.789,2.342-9.1   c2.042-6.236-3.139-14.008-3.139-14.008l-6.123,6.123c-0.921-0.092-4.795-0.092-5.716,0l-6.123-6.123c0,0-3.907,6.014-3.531,11.176   c-1.15-4.809-6.247-7.057-8.395-7.057c-1.835,0-3.485,1.229-4.012,2.986c-0.545,1.816,0.235,4.486,2.843,5.227   c0.938,0.266,1.119,0.641,1.178,0.766c0.279,0.578,0.337,1.922-0.968,5.045c-4.636,11.098,0.461,16.34,4.661,18.076   c0.408,1.115,0.849,2.154,1.239,3.014c-1.264,0.918-2.275,2.414-2.275,4.613c0,2.635,1.971,5.363,5.269,5.363   c0.934,0,1.688-0.277,2.268-0.676c0.969,0.646,2.135,1.039,3.363,1.039c2.488,0,5.52-0.443,7.233-2.713   c1.705,2.107,4.73,2.713,7.212,2.713c1.228,0,2.394-0.393,3.362-1.039c0.579,0.398,1.334,0.676,2.267,0.676   c3.298,0,5.27-2.729,5.27-5.363c0-2.199-1.011-3.693-2.274-4.611C44.081,62.217,43.943,58.738,42.678,56.625z M16.451,34.059   l4.855,4.855c0.588-0.191,7-0.191,7.588,0l4.856-4.855c2.516,4.764,1.865,8.621,1.301,10.412c0.286,0.791,0.441,1.629,0.441,2.496   c0,4.777-4.652,8.648-10.392,8.648s-10.393-3.871-10.393-8.648c0-0.867,0.154-1.705,0.442-2.496   C14.584,42.68,13.933,38.822,16.451,34.059z M12.657,47.047c0.036,2.332,0.933,4.486,2.429,6.236v1.455   c-1.177-0.344-2.92-1.025-5.038-0.25C10.249,53.707,12.307,48.469,12.657,47.047z M12.707,77.473   c-2.187,0.5-3.467-1.494-3.467-2.957c0-3.17,3.17-3.445,3.17-3.445s-1.573-2.936-2.634-6.164c-5.335-1.58-7.991-6.916-4.396-15.516   c1.361-3.258,2.764-7.842-1.776-9.129c-0.979-0.277-1.528-1.318-1.235-2.293c0.239-0.799,1.198-1.479,1.967-1.289   c6.413,1.578,7.49,6.844,4.444,14.133c-1.527,3.654-2.278,7.656,0.048,9.412c-0.07-4.283,3.373-4.006,6.346-2.998v12.221   c-1.703,0.84-3.281,2.535-3.281,5.33C11.892,75.74,12.194,76.664,12.707,77.473z M32.348,77.855c-4.09,0-6.296-1.578-6.296-4.355   c0-1.193,0-3.359,0-5.441c2.149-0.504,3.751-2.432,3.751-4.736c-0.271,2.432-2.363,3.779-4.867,3.779s-4.595-1.348-4.865-3.779   c0,2.338,1.646,4.289,3.843,4.758c0,2.066,0,4.211,0,5.42c0,2.842-2.207,4.355-6.296,4.355c-1.971,0-3.607-1.633-3.607-3.156   c0-3.303,3.301-3.59,3.301-3.59V55.164c4.832,3.258,11.186,2.83,15.343,0.162v15.783c0,0,3.301,0.287,3.301,3.59   C35.955,76.223,34.318,77.855,32.348,77.855z M37.594,70.988c0,0,3.21,0.277,3.21,3.488c0,1.482-1.183,3.43-3.512,2.996   c0.519-0.82,0.825-1.756,0.825-2.73c0-2.83-1.599-4.549-3.322-5.398V56.967c1.315-0.445,2.387-0.645,3.25-0.645   C45.451,56.322,37.594,70.988,37.594,70.988z M98.92,48.586c0,0-3.518,8.752-8.489,7.586c-0.919-2.846-3.218-5.77-10.147-3.854   v-7.123c0.018-0.025,0.039-0.053,0.057-0.078c1.266-1.775,1.935-3.67,2.252-5.158c1.723,0.611,5.688-0.148,5.688-6.359   c0-2.994-1.386-6.229-3.907-9.105c-2.857-3.26-6.666-6.287-10.842-3.037c-1.188-0.303-6.781-0.303-7.97,0.002   c-3.056-2.959-7.106-1.191-10.807,3.035c-2.52,2.879-3.907,6.111-3.907,9.105c0,6.211,3.779,6.873,5.669,6.365   c0.366,3.207,2.248,5.176,2.325,5.279v7.074c-5.688-2.184-8.515,0.861-9.34,2.119c-1.54,2.342-2.069,6.738,0.659,14.371   c-1.513,0.996-2.768,2.699-2.768,5.275c0,3.156,2.992,5.926,6.402,5.926c2.208,0,3.914-0.91,4.293-1.131   c1.052,0.703,2.317,1.131,3.649,1.131c2.688,0,6.205-0.736,7.813-2.939c1.553,2.203,5.141,2.939,7.837,2.939   c1.331,0,2.599-0.428,3.648-1.131c0.38,0.219,2.086,1.131,4.294,1.131c3.41,0,6.402-2.77,6.402-5.926   c0-2.576-1.256-4.357-2.769-5.354C104.787,63.682,98.92,48.586,98.92,48.586z M86.066,33.564c0,2.967-0.936,4.041-1.999,4.041   c-0.437,0-0.894-0.18-1.317-0.486l-6.555-14.516C78.814,20.844,86.066,27.979,86.066,33.564z M56.422,37.088   c-0.436,0.324-0.909,0.518-1.361,0.518c-1.063,0-1.998-1.074-1.998-4.041c0-5.586,6.773-12.494,9.935-11.041L56.422,37.088z    M58.623,37.994c0-0.029,6.218-13.857,6.218-13.857c1.516-0.535,8.194-0.525,9.487,0.025c0,0,6.174,13.775,6.174,13.832   c0,2.123-1.857,10.047-10.939,10.047c-4.976,0-7.652-2.381-9.025-4.381C59.027,41.457,58.623,39.063,58.623,37.994z M75.616,48.875   c-0.478,2.885-2.974,5.055-5.973,5.055c-2.961,0-5.454-2.143-5.96-4.99c1.753,0.762,3.734,1.164,5.879,1.164   C72.002,50.104,73.993,49.615,75.616,48.875z M56.628,54.133c-0.412,3.592-2.692,6.563-5.721,7.525   C50.34,57.736,50.786,53.07,56.628,54.133z M56.236,77.213c-0.557,0.229-1.434,0.504-2.455,0.504c-2.143,0-3.924-1.775-3.924-3.436   c0-3.592,3.592-3.902,3.592-3.902s-1.291-2.986-2.098-6.41c3.924-1.125,6.918-4.768,7.559-9.217   c0.014,0.004,0.025,0.008,0.039,0.012v13.684c-1.863,0.92-3.591,2.775-3.591,5.834C55.358,75.328,55.684,76.332,56.236,77.213z    M77.534,77.717c-4.427,0-6.815-1.639-6.815-4.713c0-3.076,0-11.744,0-11.744c-0.045-0.432-0.27-1.061-1.143-1.061   c-0.92,0-1.137,0.588-1.17,1.105c0,0,0,8.695,0,11.699s-2.389,4.713-6.814,4.713c-2.133,0-3.904-1.768-3.904-3.418   c0-3.572,3.573-3.883,3.573-3.883V48.391c0.271,4.422,3.95,7.883,8.383,7.883c5.313,0,8.222-3.928,8.222-7.883v22.025   c0,0,3.572,0.311,3.572,3.883C81.438,75.949,79.668,77.717,77.534,77.717z M89.162,74.232c0,1.648-1.77,3.414-3.9,3.414   c-1.016,0-1.887-0.271-2.441-0.5c0.551-0.877,0.873-1.873,0.873-2.914c0-3.041-1.717-4.887-3.568-5.799V54.828   c5.231-1.75,6.764-0.098,7.411,0.992c0,0-4.132,2.852-4.354,6.576c-0.234,3.922,2.988,6.494,2.988,6.494   c-0.338,0.904-0.577,1.461-0.577,1.461S89.162,70.662,89.162,74.232z M87.19,66.561c-1.21-1.34-1.773-2.68-1.673-3.984   c0.152-1.953,1.709-3.531,2.734-4.361c7.264,2.291,9.816-4.17,9.816-4.17C97.539,62.895,89.195,65.953,87.19,66.561z"/></g></g><g id="SvgjsG1360" featureKey="nameFeature-0" transform="matrix(0.447720664279302,0,0,0.447720664279302,19.46951796751554,70.91389383447952)" fill="#000000"><path d="M44.6 12 c0.52 0 0.64 1.28 0.12 1.36 c-1.6 0.24 -2.84 0.84 -4.16 4.24 l-6.04 15.68 c-1.28 3.32 -1.92 5.16 -1.92 6.72 c0 0.24 -2.8 0.88 -2.92 0.6 l-6.28 -16 l-3.76 8.68 c-1.44 3.32 -1.92 5.12 -1.92 6.72 c0 0.24 -2.84 0.88 -2.96 0.6 l-9.12 -22.96 c-1.36 -3.44 -2.56 -4.04 -4.12 -4.28 c-0.52 -0.08 -0.4 -1.36 0.12 -1.36 l10.4 0 c0.52 0 0.6 1.28 0.12 1.36 c-1.84 0.32 -2.8 1.16 -1.6 4.24 l6.32 16.32 l4.08 -9.44 c0.92 -2.12 1.04 -3.4 -0.04 -6.16 c-1.48 -3.8 -2.52 -4.68 -3.56 -4.96 c-0.44 -0.12 -0.4 -1.36 0.12 -1.36 l7.96 0 c0.4 0 0.52 0.12 0.52 0.32 c0 0.52 -1.76 1.76 -0.4 5.28 l6.16 16 l6.08 -16 c1.32 -3.44 0 -3.88 -1.92 -4.24 c-0.44 -0.08 -0.36 -1.36 0.12 -1.36 l8.6 0 z M78.08 38.64 c0.32 0.04 0.08 1.36 -0.24 1.36 l-10.96 0 c-0.32 0 -0.56 -1.32 -0.24 -1.36 c2.04 -0.28 3.32 -1.08 3.32 -3.6 l0 -6.88 c-0.2 -0.68 -1.04 -0.68 -1.8 -0.68 l-10.24 0 c-0.76 0 -1.6 0 -1.8 0.68 l0 6.88 c0 2.8 1.6 3.36 3.32 3.6 c0.32 0.04 0.08 1.36 -0.24 1.36 l-10.96 0 c-0.32 0 -0.56 -1.32 -0.24 -1.36 c2.04 -0.28 3.32 -1.08 3.32 -3.6 l0 -18.08 c0 -2.52 -1.28 -3.32 -3.32 -3.6 c-0.32 -0.04 -0.08 -1.36 0.24 -1.36 l10.96 0 c0.32 0 0.56 1.32 0.24 1.36 c-1.72 0.24 -3.32 0.8 -3.32 3.6 l0 7.32 c0.2 0.68 1.04 0.68 1.8 0.68 l10.24 0 c0.76 0 1.6 0 1.8 -0.68 l0 -7.32 c0 -2.52 -1.28 -3.32 -3.32 -3.6 c-0.32 -0.04 -0.08 -1.36 0.24 -1.36 l10.96 0 c0.32 0 0.56 1.32 0.24 1.36 c-1.72 0.24 -3.32 0.8 -3.32 3.6 l0 18.08 c0 2.8 1.6 3.36 3.32 3.6 z M81.84 40 c-0.32 0 -0.56 -1.32 -0.24 -1.36 c2.04 -0.28 3.32 -1.08 3.32 -3.6 l0 -18.08 c0 -2.52 -1.28 -3.32 -3.32 -3.6 c-0.32 -0.04 -0.08 -1.36 0.24 -1.36 l10.96 0 c0.32 0 0.56 1.32 0.24 1.36 c-1.72 0.24 -3.32 0.8 -3.32 3.6 l0 18.08 c0 2.8 1.6 3.36 3.32 3.6 c0.32 0.04 0.08 1.36 -0.24 1.36 l-10.96 0 z M105.04 40.64 c-3.28 0 -8.28 -1.44 -7.8 -3.2 l0.4 -1.48 c1.12 -4.2 2.44 1.96 9.04 1.96 c3.36 0 5 -1.64 5 -3.96 c0 -1.88 -1.2 -2.68 -4.04 -4.44 l-3.88 -2.44 c-4.32 -2.72 -6.08 -4.4 -6.08 -7.4 c0 -4.92 4.8 -8.32 9.76 -8.32 c3.04 0 6.92 1.32 6.48 2.68 l-0.48 1.52 c-1.24 3.88 -2.24 -1.48 -7.72 -1.48 c-2.84 0 -4.32 1.44 -4.32 3.56 c0 1.8 1.08 2.8 3.76 4.44 l4.2 2.6 c4.24 2.64 5.96 4.44 5.96 7.32 c0 5 -4.92 8.64 -10.28 8.64 z M130.52 38.64 c0.32 0.04 0.08 1.36 -0.24 1.36 l-10.96 0 c-0.32 0 -0.56 -1.32 -0.24 -1.36 c2.04 -0.28 3.32 -1.08 3.32 -3.6 l0 -18.08 c0 -2.52 -1.28 -3.32 -3.32 -3.6 c-0.32 -0.04 -0.08 -1.36 0.24 -1.36 l10.96 0 c0.32 0 0.56 1.32 0.24 1.36 c-1.72 0.24 -3.32 0.8 -3.32 3.6 l0 18.08 c0 2.8 1.6 3.36 3.32 3.6 z M147.52 39 c0.32 0 0.24 1.08 0 1.16 c-2.52 0.84 -6.08 0.56 -8.52 -2.08 l-11.32 -12.24 l9.04 -9.28 c1.92 -1.96 1.8 -2.84 -0.32 -3.2 c-0.48 -0.08 -0.28 -1.36 0.04 -1.36 l9.2 0 c0.32 0 0.56 1.32 0.16 1.36 c-1.76 0.24 -3.84 1.04 -6.36 3.64 l-7.08 7.28 l10.32 11.08 c2.6 2.76 4 3.64 4.84 3.64 z M150.92000000000002 40.08 c-0.4 0.04 -0.56 -1.36 -0.24 -1.44 c2.32 -0.6 4.12 -0.96 4.12 -3.92 l0 -17.76 c0 -2.56 -1.64 -3.24 -3.36 -3.68 c-0.32 -0.08 -0.12 -1.4 0.2 -1.36 c2.92 0.32 7.96 0.24 10.4 0.24 c3.64 0 6.28 -0.16 9.56 -0.24 c0.96 0 0.96 0.64 0.76 1.56 l-0.96 3.8 c-0.12 0.56 -1.12 0.56 -1.28 0 c-0.6 -1.96 -1.8 -3.08 -6.8 -3.08 c-2.8 0 -3.72 0.72 -3.72 2.8 l0 6.52 c0 1.04 0.52 1.24 1.32 1.24 l0.88 0 c3.24 0 6.04 -0.32 7.68 -1.8 c0.4 -0.36 1.28 -0.28 0.92 0.52 l-2.28 5.04 c-0.32 0.72 -0.92 0.64 -1.36 0.04 c-0.92 -1.28 -2.96 -1.8 -5.28 -1.8 l-0.56 0 c-0.8 0 -1.32 0.2 -1.32 1.24 l0 6.72 c0 2.28 0.96 3.12 4.28 3.12 c6.04 0 8.44 -2.76 9.4 -4.28 c0.28 -0.44 1.36 -0.24 1.36 0.44 c0 2.04 -1.72 6.08 -4.24 6.08 c-2.24 -0.12 -4.44 -0.24 -7.8 -0.24 c-3.68 0 -8.04 -0.12 -11.68 0.24 z M207.24 39 c0.32 0 0.24 1.08 0 1.16 c-2.52 0.84 -6 0.72 -8.4 -2.36 l-6.16 -7.92 c-1.72 -2.24 -3.76 -2.56 -6.56 -2.6 l0 7.76 c0 2.8 1.92 3.28 4.48 3.6 c0.28 0.04 0.08 1.36 -0.24 1.36 l-12.12 0 c-0.32 0 -0.56 -1.32 -0.24 -1.36 c2.04 -0.28 3.32 -1.08 3.32 -3.6 l0 -17.84 c0 -2.64 -1.4 -3.4 -3.32 -3.92 c-0.32 -0.08 -0.12 -1.4 0.24 -1.36 c1.56 0.2 3.32 0.24 4.6 0.24 c2.96 0 5.72 -0.24 7.64 -0.24 c6.04 0 10.08 2.48 10.08 7.4 c0 4.64 -3.76 6.92 -7.12 7.12 l0 0.2 c1.6 0 2.76 0.68 4.52 2.88 l5.96 7.48 c1.24 1.56 2.44 2 3.32 2 z M187.28 25.439999999999998 c5.96 0 8.24 -1.04 8.24 -5.04 c0 -4.28 -2.72 -6.4 -6.28 -6.4 c-2.36 0 -3.12 0.96 -3.12 3.2 l0 8.24 l1.16 0 z M218.28000000000003 40.64 c-3.28 0 -8.28 -1.44 -7.8 -3.2 l0.4 -1.48 c1.12 -4.2 2.44 1.96 9.04 1.96 c3.36 0 5 -1.64 5 -3.96 c0 -1.88 -1.2 -2.68 -4.04 -4.44 l-3.88 -2.44 c-4.32 -2.72 -6.08 -4.4 -6.08 -7.4 c0 -4.92 4.8 -8.32 9.76 -8.32 c3.04 0 6.92 1.32 6.48 2.68 l-0.48 1.52 c-1.24 3.88 -2.24 -1.48 -7.72 -1.48 c-2.84 0 -4.32 1.44 -4.32 3.56 c0 1.8 1.08 2.8 3.76 4.44 l4.2 2.6 c4.24 2.64 5.96 4.44 5.96 7.32 c0 5 -4.92 8.64 -10.28 8.64 z M269.24000000000007 38.64 c0.56 0.08 0.4 1.36 -0.08 1.36 l-10.56 0 c-0.52 0 -0.56 -1.28 -0.12 -1.36 c1.48 -0.28 3.08 -0.8 1.6 -4.24 l-0.44 -1 c-0.4 -0.96 -1.08 -1.04 -2.28 -1.04 l-8.16 0 c-1.2 0 -1.88 0.08 -2.28 1.04 l-0.4 1 c-1.4 3.44 0.12 3.96 2.04 4.24 c0.52 0.08 0.4 1.36 -0.12 1.36 l-8.64 0 c-0.48 0 -0.6 -1.28 -0.12 -1.36 c1.64 -0.28 2.6 -0.84 4.08 -4.24 l6.76 -15.52 c1.56 -3.52 2.04 -5.16 2.04 -6.68 c0 -0.24 2.8 -0.88 2.92 -0.6 l9.76 22.76 c1.44 3.4 2.4 4.04 4 4.28 z M257.08000000000004 30.119999999999997 c0.56 0 1.16 -0.08 0.92 -0.64 l-4.68 -11.2 l-4.72 11.2 c-0.24 0.56 0.36 0.64 0.92 0.64 l7.56 0 z M298.72 40.4 c-0.68 0 -1.04 -0.28 -1.48 -0.76 l-19.04 -19.92 l0 15.2 c0 2.72 1.6 3.16 3.88 3.72 c0.32 0.08 0.16 1.36 -0.24 1.36 l-9.48 0 c-0.32 0 -0.56 -1.24 -0.2 -1.36 c1.68 -0.56 3.28 -0.88 3.28 -3.72 l0 -15.52 c0 -2.84 -0.44 -4.2 -1.48 -5.6 c-0.36 -0.48 -0.72 -0.8 -0.72 -0.92 c0 -0.36 0.24 -0.88 0.8 -0.88 l2.96 0 c0.4 0 0.68 0.04 0.96 0.36 l18.64 19.72 l0 -15.04 c0 -2.84 -1.8 -3.16 -3.88 -3.68 c-0.32 -0.08 -0.16 -1.36 0.24 -1.36 l9.48 0 c0.32 0 0.52 1.28 0.2 1.36 c-1.76 0.52 -3.28 0.84 -3.28 3.68 l0 15.56 c0 2.64 0.08 5.56 0.48 7.04 c0.16 0.6 -0.48 0.76 -1.12 0.76 z M305.8 40.08 c-0.4 0.04 -0.56 -1.36 -0.24 -1.44 c2.32 -0.6 4.12 -0.96 4.12 -3.92 l0 -17.76 c0 -2.56 -1.64 -3.24 -3.36 -3.68 c-0.32 -0.08 -0.12 -1.4 0.2 -1.36 c1.64 0.2 3.32 0.24 5 0.24 c3.12 0 5.92 -0.24 7.96 -0.24 c9.68 0 14.92 5.76 14.92 13.48 c0 7.68 -5.24 14.68 -14.96 14.68 c-1.92 0 -4.4 -0.24 -7.36 -0.24 c-2.48 0 -4.44 0.04 -6.28 0.24 z M319.84000000000003 37.96 c6.52 0 9.76 -3.52 9.76 -10.28 c0 -7.64 -4.16 -13.64 -11.36 -13.64 c-2.84 0 -3.76 0.88 -3.76 2.92 l0 17.76 c0 2.16 1.48 3.24 5.36 3.24 z M388.80000000000007 12 c0.52 0 0.64 1.28 0.12 1.36 c-1.6 0.24 -2.84 0.84 -4.16 4.24 l-6.04 15.68 c-1.28 3.32 -1.92 5.16 -1.92 6.72 c0 0.24 -2.8 0.88 -2.92 0.6 l-6.28 -16 l-3.76 8.68 c-1.44 3.32 -1.92 5.12 -1.92 6.72 c0 0.24 -2.84 0.88 -2.96 0.6 l-9.12 -22.96 c-1.36 -3.44 -2.56 -4.04 -4.12 -4.28 c-0.52 -0.08 -0.4 -1.36 0.12 -1.36 l10.4 0 c0.52 0 0.6 1.28 0.12 1.36 c-1.84 0.32 -2.8 1.16 -1.6 4.24 l6.32 16.32 l4.08 -9.44 c0.92 -2.12 1.04 -3.4 -0.04 -6.16 c-1.48 -3.8 -2.52 -4.68 -3.56 -4.96 c-0.44 -0.12 -0.4 -1.36 0.12 -1.36 l7.96 0 c0.4 0 0.52 0.12 0.52 0.32 c0 0.52 -1.76 1.76 -0.4 5.28 l6.16 16 l6.08 -16 c1.32 -3.44 0 -3.88 -1.92 -4.24 c-0.44 -0.08 -0.36 -1.36 0.12 -1.36 l8.6 0 z M421.32000000000005 38.64 c0.56 0.08 0.4 1.36 -0.08 1.36 l-10.56 0 c-0.52 0 -0.56 -1.28 -0.12 -1.36 c1.48 -0.28 3.08 -0.8 1.6 -4.24 l-0.44 -1 c-0.4 -0.96 -1.08 -1.04 -2.28 -1.04 l-8.16 0 c-1.2 0 -1.88 0.08 -2.28 1.04 l-0.4 1 c-1.4 3.44 0.12 3.96 2.04 4.24 c0.52 0.08 0.4 1.36 -0.12 1.36 l-8.64 0 c-0.48 0 -0.6 -1.28 -0.12 -1.36 c1.64 -0.28 2.6 -0.84 4.08 -4.24 l6.76 -15.52 c1.56 -3.52 2.04 -5.16 2.04 -6.68 c0 -0.24 2.8 -0.88 2.92 -0.6 l9.76 22.76 c1.44 3.4 2.4 4.04 4 4.28 z M409.1600000000001 30.119999999999997 c0.56 0 1.16 -0.08 0.92 -0.64 l-4.68 -11.2 l-4.72 11.2 c-0.24 0.56 0.36 0.64 0.92 0.64 l7.56 0 z M442.12000000000006 40.64 c-9.56 0 -17.24 -4.72 -17.24 -14.12 c0 -7.64 5.24 -15.16 16.36 -15.16 c4.88 0 8.68 1.44 8.2 2.8 l-0.6 1.68 c-1.4 3.96 -3 -1.24 -10.48 -1.24 c-6.2 0 -9.04 3.56 -9.04 9.6 c0 9 6.12 13.88 11.64 13.88 c2.88 0 3.96 -1.4 3.96 -3.68 l0 -0.72 c0 -3.04 -1.36 -4.04 -4.56 -4.52 c-0.52 -0.08 -0.04 -1.52 0.84 -1.52 l10.28 0 c1.12 0 0.72 1.4 0.28 1.52 c-1.48 0.4 -2.48 1.24 -2.48 3.8 l0 1.4 c0 0.96 0.08 1.8 0.84 3.04 c-2.4 1.32 -7.04 3.24 -8 3.24 z M464.44000000000005 40.64 c-3.28 0 -8.28 -1.44 -7.8 -3.2 l0.4 -1.48 c1.12 -4.2 2.44 1.96 9.04 1.96 c3.36 0 5 -1.64 5 -3.96 c0 -1.88 -1.2 -2.68 -4.04 -4.44 l-3.88 -2.44 c-4.32 -2.72 -6.08 -4.4 -6.08 -7.4 c0 -4.92 4.8 -8.32 9.76 -8.32 c3.04 0 6.92 1.32 6.48 2.68 l-0.48 1.52 c-1.24 3.88 -2.24 -1.48 -7.72 -1.48 c-2.84 0 -4.32 1.44 -4.32 3.56 c0 1.8 1.08 2.8 3.76 4.44 l4.2 2.6 c4.24 2.64 5.96 4.44 5.96 7.32 c0 5 -4.92 8.64 -10.28 8.64 z M485.92 40.08 c-0.4 0.04 -0.56 -1.36 -0.24 -1.44 c2.32 -0.6 4.12 -0.96 4.12 -3.92 l0 -17.76 c0 -2.56 -1.64 -3.24 -3.36 -3.68 c-0.32 -0.08 -0.12 -1.4 0.2 -1.36 c2.92 0.32 7.96 0.24 10.4 0.24 c3.64 0 6.28 -0.16 9.56 -0.24 c0.96 0 0.96 0.64 0.76 1.56 l-0.96 3.8 c-0.12 0.56 -1.12 0.56 -1.28 0 c-0.6 -1.96 -1.8 -3.08 -6.8 -3.08 c-2.8 0 -3.72 0.72 -3.72 2.8 l0 6.92 c0 1.04 0.52 1.24 1.32 1.24 l0.88 0 c3.24 0 6.04 -0.32 7.68 -1.8 c0.4 -0.36 1.28 -0.28 0.92 0.52 l-2.28 5.04 c-0.32 0.72 -0.92 0.64 -1.36 0.04 c-0.92 -1.28 -2.96 -1.8 -5.28 -1.8 l-0.56 0 c-0.8 0 -1.32 0.2 -1.32 1.24 l0 6.32 c0 2.96 1.84 3.2 5.12 3.92 c0.36 0.08 0.16 1.48 -0.24 1.44 c-2.88 -0.2 -4.96 -0.24 -7.28 -0.24 s-4.4 0.04 -6.28 0.24 z M525.9200000000001 40.64 c-8.32 0 -14.44 -6.16 -14.44 -14.48 c0 -8.08 5.76 -14.8 14.52 -14.8 c8.36 0 14.44 6.12 14.44 14.44 c0 8.12 -5.72 14.84 -14.52 14.84 z M527.48 37.92 c3.52 0 8.2 -2.32 8.2 -9.88 c0 -8.08 -5.48 -13.96 -11.24 -13.96 c-3.52 0 -8.16 2.32 -8.16 9.84 c0 8.16 5.48 14 11.2 14 z M559.4 40.64 c-5.64 0 -11.96 -3 -11.96 -11.12 l0 -12.56 c0 -2.52 -1.28 -3.36 -3.24 -3.6 c-0.32 -0.04 -0.08 -1.36 0.24 -1.36 l10.92 0 c0.32 0 0.56 1.32 0.24 1.36 c-1.6 0.2 -3.2 0.8 -3.2 3.6 l0 12.76 c0 5.6 3.24 8.2 7.48 8.2 c4.36 0 7.84 -2.6 7.84 -8.2 l0 -12.76 c0 -2.6 -1.48 -3.32 -3.44 -3.6 c-0.28 -0.04 -0.08 -1.36 0.24 -1.36 l9 0 c0.28 0 0.52 1.32 0.2 1.36 c-1.6 0.2 -3.2 0.8 -3.2 3.6 l0 12.52 c0 7.36 -4.76 11.16 -11.12 11.16 z M603.4 40.4 c-0.68 0 -1.04 -0.28 -1.48 -0.76 l-19.04 -19.92 l0 15.2 c0 2.72 1.6 3.16 3.88 3.72 c0.32 0.08 0.16 1.36 -0.24 1.36 l-9.48 0 c-0.32 0 -0.56 -1.24 -0.2 -1.36 c1.68 -0.56 3.28 -0.88 3.28 -3.72 l0 -15.52 c0 -2.84 -0.44 -4.2 -1.48 -5.6 c-0.36 -0.48 -0.72 -0.8 -0.72 -0.92 c0 -0.36 0.24 -0.88 0.8 -0.88 l2.96 0 c0.4 0 0.68 0.04 0.96 0.36 l18.64 19.72 l0 -15.04 c0 -2.84 -1.8 -3.16 -3.88 -3.68 c-0.32 -0.08 -0.16 -1.36 0.24 -1.36 l9.48 0 c0.32 0 0.52 1.28 0.2 1.36 c-1.76 0.52 -3.28 0.84 -3.28 3.68 l0 15.56 c0 2.64 0.08 5.56 0.48 7.04 c0.16 0.6 -0.48 0.76 -1.12 0.76 z M610.4799999999999 40.08 c-0.4 0.04 -0.56 -1.36 -0.24 -1.44 c2.32 -0.6 4.12 -0.96 4.12 -3.92 l0 -17.76 c0 -2.56 -1.64 -3.24 -3.36 -3.68 c-0.32 -0.08 -0.12 -1.4 0.2 -1.36 c1.64 0.2 3.32 0.24 5 0.24 c3.12 0 5.92 -0.24 7.96 -0.24 c9.68 0 14.92 5.76 14.92 13.48 c0 7.68 -5.24 14.68 -14.96 14.68 c-1.92 0 -4.4 -0.24 -7.36 -0.24 c-2.48 0 -4.44 0.04 -6.28 0.24 z M624.52 37.96 c6.52 0 9.76 -3.52 9.76 -10.28 c0 -7.64 -4.16 -13.64 -11.36 -13.64 c-2.84 0 -3.76 0.88 -3.76 2.92 l0 17.76 c0 2.16 1.48 3.24 5.36 3.24 z M671.9599999999999 38.64 c0.56 0.08 0.4 1.36 -0.08 1.36 l-10.56 0 c-0.52 0 -0.56 -1.28 -0.12 -1.36 c1.48 -0.28 3.08 -0.8 1.6 -4.24 l-0.44 -1 c-0.4 -0.96 -1.08 -1.04 -2.28 -1.04 l-8.16 0 c-1.2 0 -1.88 0.08 -2.28 1.04 l-0.4 1 c-1.4 3.44 0.12 3.96 2.04 4.24 c0.52 0.08 0.4 1.36 -0.12 1.36 l-8.64 0 c-0.48 0 -0.6 -1.28 -0.12 -1.36 c1.64 -0.28 2.6 -0.84 4.08 -4.24 l6.76 -15.52 c1.56 -3.52 2.04 -5.16 2.04 -6.68 c0 -0.24 2.8 -0.88 2.92 -0.6 l9.76 22.76 c1.44 3.4 2.4 4.04 4 4.28 z M659.8 30.119999999999997 c0.56 0 1.16 -0.08 0.92 -0.64 l-4.68 -11.2 l-4.72 11.2 c-0.24 0.56 0.36 0.64 0.92 0.64 l7.56 0 z M680.8799999999999 40 c-0.36 0 -0.6 -1.28 -0.28 -1.32 c2.76 -0.36 4.6 -0.92 4.6 -3.08 l0 -19.72 c0 -1 -0.36 -1.32 -1.32 -1.32 l-1.08 0 c-3.8 0 -5.92 0.88 -6.72 2.6 c-0.36 0.8 -1.72 0.68 -1.56 0 c0.36 -1.44 0.68 -2.68 0.92 -4.8 c0.08 -0.76 0.52 -0.72 1.24 -0.64 c1.84 0.2 3.52 0.28 11.12 0.28 s10.28 -0.08 12.2 -0.28 c0.72 -0.08 1.4 -0.12 1.16 0.64 c-0.6 1.88 -1 3.36 -1.24 4.8 c-0.12 0.68 -1.2 0.72 -1.36 0 c-0.4 -1.68 -2.16 -2.6 -5.6 -2.6 l-1.24 0 c-0.96 0 -1.56 0.32 -1.56 1.32 l0 19.72 c0 2.16 1.84 2.72 4.6 3.08 c0.32 0.04 0.08 1.32 -0.28 1.32 l-13.6 0 z M704.4 40 c-0.32 0 -0.56 -1.32 -0.24 -1.36 c2.04 -0.28 3.32 -1.08 3.32 -3.6 l0 -18.08 c0 -2.52 -1.28 -3.32 -3.32 -3.6 c-0.32 -0.04 -0.08 -1.36 0.24 -1.36 l10.96 0 c0.32 0 0.56 1.32 0.24 1.36 c-1.72 0.24 -3.32 0.8 -3.32 3.6 l0 18.08 c0 2.8 1.6 3.36 3.32 3.6 c0.32 0.04 0.08 1.36 -0.24 1.36 l-10.96 0 z M734 40.64 c-8.32 0 -14.44 -6.16 -14.44 -14.48 c0 -8.08 5.76 -14.8 14.52 -14.8 c8.36 0 14.44 6.12 14.44 14.44 c0 8.12 -5.72 14.84 -14.52 14.84 z M735.5600000000001 37.92 c3.52 0 8.2 -2.32 8.2 -9.88 c0 -8.08 -5.48 -13.96 -11.24 -13.96 c-3.52 0 -8.16 2.32 -8.16 9.84 c0 8.16 5.48 14 11.2 14 z M778.84 40.4 c-0.68 0 -1.04 -0.28 -1.48 -0.76 l-19.04 -19.92 l0 15.2 c0 2.72 1.6 3.16 3.88 3.72 c0.32 0.08 0.16 1.36 -0.24 1.36 l-9.48 0 c-0.32 0 -0.56 -1.24 -0.2 -1.36 c1.68 -0.56 3.28 -0.88 3.28 -3.72 l0 -15.52 c0 -2.84 -0.44 -4.2 -1.48 -5.6 c-0.36 -0.48 -0.72 -0.8 -0.72 -0.92 c0 -0.36 0.24 -0.88 0.8 -0.88 l2.96 0 c0.4 0 0.68 0.04 0.96 0.36 l18.64 19.72 l0 -15.04 c0 -2.84 -1.8 -3.16 -3.88 -3.68 c-0.32 -0.08 -0.16 -1.36 0.24 -1.36 l9.48 0 c0.32 0 0.52 1.28 0.2 1.36 c-1.76 0.52 -3.28 0.84 -3.28 3.68 l0 15.56 c0 2.64 0.08 5.56 0.48 7.04 c0.16 0.6 -0.48 0.76 -1.12 0.76 z"/></g>
			</g>
		</svg>
	